<svg xmlns="http://www.w3.org/2000/svg" viewBox="0 0 1600 900" role="img" aria-labelledby="title desc">
  <title id="title">Adventure Quest level capture</title>
  <desc id="desc">A stylized side-scrolling gameplay screenshot for Adventure Quest.</desc>
  <rect width="1600" height="900" fill="#19264d"/>
  <rect y="540" width="1600" height="360" fill="#355c3b"/>
  <circle cx="1310" cy="142" r="72" fill="#f4efc0"/>
  <rect x="0" y="0" width="1600" height="540" fill="#243b74" fill-opacity="0.5"/>
  <rect x="110" y="512" width="260" height="70" rx="18" fill="#86603a"/>
  <rect x="428" y="442" width="260" height="70" rx="18" fill="#86603a"/>
  <rect x="754" y="372" width="260" height="70" rx="18" fill="#86603a"/>
  <rect x="1090" y="462" width="260" height="70" rx="18" fill="#86603a"/>
  <rect x="260" y="430" width="84" height="108" rx="20" fill="#ff914d"/>
  <rect x="278" y="392" width="48" height="54" rx="16" fill="#ffd978"/>
  <rect x="1044" y="292" width="88" height="126" rx="20" fill="#6db3ff"/>
  <rect x="1062" y="254" width="52" height="54" rx="16" fill="#dce8ff"/>
  <rect x="102" y="92" width="300" height="34" rx="17" fill="#dbe6ff" fill-opacity="0.18"/>
  <rect x="102" y="146" width="240" height="22" rx="11" fill="#dbe6ff" fill-opacity="0.18"/>
  <rect x="1244" y="92" width="244" height="34" rx="17" fill="#ffcf82" fill-opacity="0.3"/>
  <text x="108" y="800" fill="#ffffff" font-family="Tahoma, Arial, sans-serif" font-size="56" font-weight="700">Adventure Quest</text>
  <text x="108" y="850" fill="#d0d9f6" font-family="Tahoma, Arial, sans-serif" font-size="30">2D platforming level flow with enemy encounters and collectible paths</text>
</svg>