<svg xmlns="http://www.w3.org/2000/svg" viewBox="0 0 1600 900" role="img" aria-labelledby="title desc">
  <title id="title">Adventure Quest editor capture</title>
  <desc id="desc">A stylized level editor screenshot for Adventure Quest.</desc>
  <rect width="1600" height="900" fill="#202641"/>
  <rect x="86" y="64" width="1428" height="772" rx="26" fill="#2b3356"/>
  <rect x="86" y="64" width="1428" height="70" rx="26" fill="#3b4b7b"/>
  <rect x="132" y="88" width="290" height="22" rx="11" fill="#93a8e6"/>
  <rect x="116" y="174" width="286" height="616" rx="22" fill="#1b2039"/>
  <rect x="436" y="174" width="820" height="616" rx="22" fill="#13182d"/>
  <rect x="1286" y="174" width="198" height="616" rx="22" fill="#1b2039"/>
  <path d="M484 660h736M484 564h736M484 468h736M484 372h736M484 276h736" stroke="#334168" stroke-width="6"/>
  <path d="M580 222v520M676 222v520M772 222v520M868 222v520M964 222v520M1060 222v520M1156 222v520" stroke="#334168" stroke-width="6"/>
  <rect x="516" y="594" width="96" height="96" rx="18" fill="#ff914d"/>
  <rect x="706" y="498" width="96" height="96" rx="18" fill="#68c96a"/>
  <rect x="898" y="402" width="96" height="96" rx="18" fill="#6db3ff"/>
  <rect x="1090" y="594" width="96" height="96" rx="18" fill="#f0b34c"/>
  <text x="128" y="798" fill="#f6f8ff" font-family="Tahoma, Arial, sans-serif" font-size="54" font-weight="700">Godot scene editor and level layout workflow</text>
</svg>