<svg xmlns="http://www.w3.org/2000/svg" viewBox="0 0 1600 900" role="img" aria-labelledby="title desc">
  <title id="title">Food ecommerce cart capture</title>
  <desc id="desc">A stylized checkout and cart screenshot for the food ecommerce project.</desc>
  <rect width="1600" height="900" fill="#fff7ef"/>
  <rect x="116" y="76" width="1368" height="748" rx="30" fill="#ffffff" stroke="#f2dbc8" stroke-width="6"/>
  <rect x="170" y="124" width="1260" height="52" rx="18" fill="#fff0de"/>
  <rect x="170" y="228" width="780" height="540" rx="26" fill="#fffaf4" stroke="#efdece" stroke-width="4"/>
  <rect x="998" y="228" width="432" height="540" rx="26" fill="#fffaf4" stroke="#efdece" stroke-width="4"/>
  <rect x="214" y="286" width="688" height="92" rx="18" fill="#ffffff" stroke="#e9d3bf" stroke-width="3"/>
  <rect x="214" y="410" width="688" height="92" rx="18" fill="#ffffff" stroke="#e9d3bf" stroke-width="3"/>
  <rect x="214" y="534" width="688" height="92" rx="18" fill="#ffffff" stroke="#e9d3bf" stroke-width="3"/>
  <rect x="1042" y="280" width="344" height="32" rx="16" fill="#ffe2c7"/>
  <rect x="1042" y="340" width="344" height="24" rx="12" fill="#fff0de"/>
  <rect x="1042" y="388" width="344" height="24" rx="12" fill="#fff0de"/>
  <rect x="1042" y="468" width="344" height="82" rx="20" fill="#ff914d"/>
  <rect x="1042" y="580" width="344" height="82" rx="20" fill="#8a3d00"/>
  <text x="170" y="792" fill="#8a3d00" font-family="Tahoma, Arial, sans-serif" font-size="56" font-weight="700">Cart and Checkout Flow</text>
</svg>