<svg xmlns="http://www.w3.org/2000/svg" viewBox="0 0 1600 900" role="img" aria-labelledby="title desc">
  <title id="title">Freelance site mobile capture</title>
  <desc id="desc">A stylized responsive mobile preview screenshot for freelance websites.</desc>
  <rect width="1600" height="900" fill="#edf3f7"/>
  <rect x="130" y="84" width="1340" height="732" rx="34" fill="#173978"/>
  <rect x="204" y="136" width="278" height="620" rx="34" fill="#ffffff"/>
  <rect x="520" y="136" width="278" height="620" rx="34" fill="#ffffff"/>
  <rect x="836" y="136" width="278" height="620" rx="34" fill="#ffffff"/>
  <rect x="1152" y="136" width="242" height="620" rx="34" fill="#ffffff"/>
  <rect x="234" y="178" width="218" height="128" rx="24" fill="#4aa4ff"/>
  <rect x="234" y="330" width="218" height="24" rx="12" fill="#dce5f1"/>
  <rect x="234" y="374" width="180" height="24" rx="12" fill="#dce5f1"/>
  <rect x="550" y="178" width="218" height="128" rx="24" fill="#68c96a"/>
  <rect x="550" y="330" width="218" height="24" rx="12" fill="#dce5f1"/>
  <rect x="550" y="374" width="180" height="24" rx="12" fill="#dce5f1"/>
  <rect x="866" y="178" width="218" height="128" rx="24" fill="#f0b34c"/>
  <rect x="866" y="330" width="218" height="24" rx="12" fill="#dce5f1"/>
  <rect x="866" y="374" width="180" height="24" rx="12" fill="#dce5f1"/>
  <rect x="1186" y="178" width="174" height="344" rx="24" fill="#eaf0f8"/>
  <text x="202" y="788" fill="#ffffff" font-family="Tahoma, Arial, sans-serif" font-size="54" font-weight="700">Responsive client layouts across phones and tablets</text>
</svg>